<?xml version="1.0" encoding="UTF-8" standalone="no"?>
<!DOCTYPE svg PUBLIC "-//W3C//DTD SVG 1.1//EN"
 "http://www.w3.org/Graphics/SVG/1.1/DTD/svg11.dtd">
<!-- Generated by graphviz version 12.1.1 (20240910.0053)
 -->
<!-- Title: INFRA Pages: 1 -->
<svg width="151pt" height="188pt"
 viewBox="0.00 0.00 150.80 188.00" xmlns="http://www.w3.org/2000/svg" xmlns:xlink="http://www.w3.org/1999/xlink">
<g id="graph0" class="graph" transform="scale(1 1) rotate(0) translate(4 184)">
<title>INFRA</title>
<polygon fill="white" stroke="none" points="-4,4 -4,-184 146.8,-184 146.8,4 -4,4"/>
<!-- Models -->
<g id="node1" class="node">
<title>Models</title>
<path fill="#e6e6e6" stroke="black" stroke-width="2" d="M130.8,-72C130.8,-72 12,-72 12,-72 6,-72 0,-66 0,-60 0,-60 0,-12 0,-12 0,-6 6,0 12,0 12,0 130.8,0 130.8,0 136.8,0 142.8,-6 142.8,-12 142.8,-12 142.8,-60 142.8,-60 142.8,-66 136.8,-72 130.8,-72"/>
<text text-anchor="middle" x="71.4" y="-40.2" font-family="Arial" font-size="14.00">Models</text>
<text text-anchor="middle" x="71.4" y="-23.4" font-family="Arial" font-size="14.00">(STATIC_LIBRARY)</text>
</g>
<!-- Sequence -->
<g id="node2" class="node">
<title>Sequence</title>
<path fill="#b7e0ff" stroke="black" stroke-width="2" d="M118.35,-180C118.35,-180 24.44,-180 24.44,-180 18.44,-180 12.44,-174 12.44,-168 12.44,-168 12.44,-120 12.44,-120 12.44,-114 18.44,-108 24.44,-108 24.44,-108 118.35,-108 118.35,-108 124.35,-108 130.35,-114 130.35,-120 130.35,-120 130.35,-168 130.35,-168 130.35,-174 124.35,-180 118.35,-180"/>
<text text-anchor="middle" x="71.4" y="-148.2" font-family="Arial" font-size="14.00">Sequence</text>
<text text-anchor="middle" x="71.4" y="-131.4" font-family="Arial" font-size="14.00">(EXECUTABLE)</text>
</g>
<!-- Sequence&#45;&gt;Models -->
<g id="edge1" class="edge">
<title>Sequence&#45;&gt;Models</title>
<path fill="none" stroke="black" d="M71.4,-107.7C71.4,-99.93 71.4,-91.57 71.4,-83.43"/>
<polygon fill="black" stroke="black" points="74.9,-83.66 71.4,-73.66 67.9,-83.66 74.9,-83.66"/>
</g>
</g>
</svg>
